<svg xmlns="http://www.w3.org/2000/svg" width="1890" height="1417" viewBox="0 0 1890 1417">
  <defs>
    <style>
      .cls-1 {
        fill: #fff;
        fill-rule: evenodd;
      }
    </style>
  </defs>
  <path id="Color_Fill_1" data-name="Color Fill 1" class="cls-1" d="M964,419c24.469-.5,40.15,9.774,47,27-0.33,1.333-.67,2.667-1,4-22.274,5.759-32.308,42.594-43,61-36.5,62.829-62.624,134.58-92,204l2-1c12.552-38.865,53.574-77.055,89-94,14.324-6.852,43.08-13.532,54,1,12.68,16.878,5.37,52.7,0,72-16.29,58.508-48.9,102.2-118,108v3c8.1,30.983,10.021,71.988,37,83,17.258,7.044,30.79-7.8,38-15,25.65-25.6,42.86-59.926,60-94,11.38-22.63,17.65-64.869,48-68,0.67,0.667,1.33,1.333,2,2q-9.495,23-19,46c-25.49,62.326-45.78,121.846-96,159-15.689,11.608-52.647,33.972-79,18-21.778-13.2-35.956-45.392-44-72l-6-32v2c-12.288,20.922-22.319,53.275-27,79-2.1,11.551,4.508,16.783,1,25a61.494,61.494,0,0,1-37-1c-40.017-14.6-26.157-59.717-17-98l-2,1c-19.033,43.181-134.335,136.109-209,91-21.924-13.245-37.443-36.525-44-65q-1.5-14-3-28v2c-26.713,34.672-39.892,77.666-84,95-31.411,12.344-71.042,3.426-79-25-7.144-25.515.3-60.075,6-82,14.088-54.173,36.077-104.618,57-152q12.5-25,25-50c12.274-16.321,70.877-39,88-10l-18,19c-34.01,50.716-60.417,116.163-80,179-3.98,12.77-21.369,71.475-9,81,22.759,11.3,53.153-36.707,62-50,46.347-69.638,66.486-167.359,138-212,39.322-24.546,133.025-32.1,148,20,11.061,38.48-10.753,80.252-32,92-11.8,6.524-41.063,10.812-48-3q-0.5-2-1-4c15.711-11.546,28.271-46.358,15-68-21.48-5.845-37.091,12.578-47,25-23.689,29.7-115.6,178.3-19,196,63.653,11.662,120.567-67.084,139-106q14.5-27.5,29-55c31.12-75.583,54.087-152.312,93-219C911.637,469.493,919.294,439.9,964,419ZM209,431c105.858-1.514,167.111,27.694,183,116,5.9,32.785-1.892,66.558-12,90-31.657,73.419-120.192,147.47-220,152-12.048,49.094-62.867,156.212-48,207h-2c-7.5,3.605-17.5.63-24-2-34.907-14.129-44.9-59.159-33-107,12.58-50.572,30.134-98.787,48-145q15.5-47.5,31-95c12.241-31.722,35.421-74.176,22-114,27.485-5.306,55.542,3.35,63,24,11.4,31.564-29.483,146.253-40,173,66.426-9.481,119.909-45.872,142-101,13.744-34.3,12.19-80.442-8-106-60.887-77.077-265.25,2.857-214,97-60.761,6.527-73.664-61.28-47-104,24.023-38.488,61.877-62.524,110-77Zm1085,0c113.74-1.741,211,68.942,162,190-19.68,48.629-82.02,107.632-133,124,0.33,0.667.67,1.333,1,2,54.68,6,84.68,65.8,60,123-26.92,62.383-89.73,101.156-161,119-54.81,13.72-138.27,12.98-174-15-34.61-27.1-19.43-89.678,20-100v1c-11.84,42.3,54,64.551,98,57,63.19-10.845,115.94-23.363,147-66,8.93-12.252,26.18-32.56,21-57-6.11-28.864-72.67-63.6-107-38q-6.495,16-13,32c-12.04,29.9-35.28,74.831-25,114-58.49,10.709-80.72-18.519-64-79q45-138.985,90-278-1.005-10-2-20c137.87-47.083,54.61,117.5,38,169,55.44-25.608,108.31-53.569,140-103,15.96-24.9,20.2-64.624,1-90-19.25-25.434-75.62-30.324-117-21-53.43,12.039-115.97,26.924-135,73-5.04,12.205-3.34,28.57-6,44h-5c-28.09-14.283-30.95-62.275-14-91,26.03-44.111,74.01-68.828,130-83ZM523,442c21.8-.8,58.893,11.874,61,27,0,0-19.531,20.809-22,25-15.237,25.863-12.6,61.451-55,61-20.394-.217-32.386-8.113-43-18C462.241,502.612,497.192,453.915,523,442Zm1071,0c21.8-.8,58.89,11.874,61,27,0,0-19.53,20.809-22,25-15.24,25.863-12.6,61.451-55,61-20.39-.217-32.39-8.113-43-18C1533.24,502.612,1568.19,453.915,1594,442Zm-47,160c18.01-.7,35.56,1.9,42,13l-18,19c-34.01,50.716-60.42,116.163-80,179-3.98,12.77-21.37,71.475-9,81,23.71,12.044,56.9-41.964,66-56,24.43-37.661,43.49-80.4,61-125,12.86-32.763,22.72-75.649,49-95,19.32-14.224,60.97-12.146,80,0,0.33,1.666.67,3.333,1,5-44.25,34.244-68.73,108.932-87,168,0.67-.333,1.33-0.667,2-1,6.68-19.43,24.39-35.623,36-51,26.97-35.7,53.03-76.38,88-104,28.85-22.791,47.01-34.291,75-4-0.23,27.779-21.69,45.162-32,65-17.11,32.945-25.82,72.2-36,112-5.54,21.634-10.71,61.864,0,81h4c12.04-11.541,37.25-51.887,55-49,1.33,1.666,2.67,3.333,4,5,8.43,33.313-72.56,117.512-115,88-60.07-41.776-2.48-187.494,18-231-36.66,28.879-81.82,114.939-105,160-11.86,23.053-19.71,61.137-40,76-36.07-9.009-50.29-16.738-41-64l3-23v2c-34.12,35.513-39.89,84.094-109,86-14.77.407-32.52-6.8-40-17-18.21-24.855-3.9-80.912,4-106,16.31-51.832,53.94-175.79,89-202C1521.79,606.68,1534.26,607.243,1547,602ZM960,651c-38.3,27.751-70.027,71.112-86,120,48.551-5.778,108.651-60.675,96-118l-3-1Z"/>
</svg>
